<?xml version="1.0" encoding="UTF-8"?><svg xmlns="http://www.w3.org/2000/svg" xmlns:xlink="http://www.w3.org/1999/xlink" width="5184" zoomAndPan="magnify" viewBox="0 0 5184 2592.000001" height="2592.000001" preserveAspectRatio="xMidYMid meet" version="1.0"><defs><clipPath id="clip-0"><path d="M 1024.078125 798.113281 L 1515.722656 798.113281 L 1515.722656 1307.964844 L 1024.078125 1307.964844 Z M 1024.078125 798.113281 " clip-rule="nonzero"/></clipPath><clipPath id="clip-1"><path d="M 3700.597656 798.113281 L 4192.238281 798.113281 L 4192.238281 1307.964844 L 3700.597656 1307.964844 Z M 3700.597656 798.113281 " clip-rule="nonzero"/></clipPath></defs><path fill="rgb(79.60968%, 42.349243%, 90.19928%)" d="M 882.664062 807.613281 L 803.261719 631.191406 L 767.957031 647.078125 L 847.382812 823.5 Z M 882.664062 807.613281 " fill-opacity="1" fill-rule="nonzero"/><path fill="rgb(79.60968%, 42.349243%, 90.19928%)" d="M 994.035156 658.160156 L 1113.839844 742.945312 L 1123.867188 740.667969 L 1080.003906 548.335938 L 1042.023438 557.015625 L 1066.324219 663.589844 L 945.808594 574.511719 L 935.777344 576.789062 L 979.714844 769.382812 L 1017.433594 760.773438 Z M 994.035156 658.160156 " fill-opacity="1" fill-rule="nonzero"/><path fill="rgb(79.60968%, 42.349243%, 90.19928%)" d="M 1286.203125 534.695312 L 1228.589844 533.226562 L 1223.632812 726.625 L 1281.246094 728.121094 C 1409.992188 731.414062 1414.945312 537.992188 1286.203125 534.695312 Z M 1285.207031 573.390625 C 1360.390625 575.3125 1357.425781 691.347656 1282.242188 689.425781 L 1263.300781 688.953125 L 1266.261719 572.894531 Z M 1285.207031 573.390625 " fill-opacity="1" fill-rule="nonzero"/><path fill="rgb(79.60968%, 42.349243%, 90.19928%)" d="M 1510.921875 757.277344 L 1553.957031 568.644531 L 1516.234375 560.039062 L 1473.199219 748.671875 Z M 1510.921875 757.277344 " fill-opacity="1" fill-rule="nonzero"/><path fill="rgb(79.60968%, 42.349243%, 90.19928%)" d="M 1704.6875 826.101562 L 1719.648438 790.417969 L 1663.007812 766.660156 L 1677.992188 730.976562 L 1724.886719 750.65625 L 1739.871094 714.972656 L 1692.953125 695.292969 L 1707.9375 659.613281 L 1761.566406 682.136719 L 1776.550781 646.453125 L 1687.214844 608.96875 L 1612.363281 787.359375 Z M 1704.6875 826.101562 " fill-opacity="1" fill-rule="nonzero"/><path fill="rgb(96.859741%, 96.859741%, 96.859741%)" d="M 1190.15625 1391.035156 C 1190.796875 1391.035156 1191.128906 1390.703125 1191.128906 1390.0625 L 1191.128906 1387.789062 C 1191.128906 1387.171875 1190.796875 1386.839844 1190.15625 1386.839844 L 1176.714844 1386.839844 L 1183.992188 1378.113281 C 1188.046875 1373.277344 1191.058594 1370.003906 1191.058594 1364.882812 C 1191.058594 1358.484375 1186.03125 1353.859375 1179.65625 1353.859375 C 1173.964844 1353.859375 1170.027344 1357.34375 1168.699219 1362.703125 C 1168.558594 1363.320312 1168.820312 1363.699219 1169.4375 1363.816406 L 1171.925781 1364.292969 C 1172.519531 1364.386719 1172.875 1364.101562 1173.039062 1363.507812 C 1173.964844 1360.117188 1176.3125 1358.054688 1179.75 1358.054688 C 1183.542969 1358.054688 1186.554688 1361.019531 1186.554688 1364.882812 C 1186.554688 1368.273438 1184.230469 1370.929688 1181.644531 1374.035156 L 1168.441406 1389.828125 C 1167.917969 1390.464844 1168.179688 1391.035156 1168.984375 1391.035156 Z M 1190.15625 1391.035156 " fill-opacity="1" fill-rule="nonzero"/><path fill="rgb(96.859741%, 96.859741%, 96.859741%)" d="M 1244.628906 1391.792969 C 1252.359375 1391.792969 1256.320312 1383.660156 1256.320312 1372.828125 C 1256.320312 1362.15625 1252.550781 1353.859375 1244.628906 1353.859375 C 1236.6875 1353.859375 1232.917969 1362.15625 1232.917969 1372.828125 C 1232.917969 1383.660156 1236.902344 1391.792969 1244.628906 1391.792969 Z M 1244.628906 1387.597656 C 1239.910156 1387.597656 1237.445312 1381.574219 1237.445312 1372.828125 C 1237.445312 1364.078125 1239.839844 1358.007812 1244.628906 1358.007812 C 1249.417969 1358.007812 1251.789062 1364.078125 1251.789062 1372.851562 C 1251.789062 1381.550781 1249.300781 1387.597656 1244.628906 1387.597656 Z M 1244.628906 1387.597656 " fill-opacity="1" fill-rule="nonzero"/><path fill="rgb(96.859741%, 96.859741%, 96.859741%)" d="M 1319.464844 1391.035156 C 1320.105469 1391.035156 1320.4375 1390.703125 1320.4375 1390.0625 L 1320.4375 1387.789062 C 1320.4375 1387.171875 1320.105469 1386.839844 1319.464844 1386.839844 L 1306.023438 1386.839844 L 1313.300781 1378.113281 C 1317.355469 1373.277344 1320.367188 1370.003906 1320.367188 1364.882812 C 1320.367188 1358.484375 1315.339844 1353.859375 1308.960938 1353.859375 C 1303.273438 1353.859375 1299.335938 1357.34375 1298.007812 1362.703125 C 1297.867188 1363.320312 1298.128906 1363.699219 1298.742188 1363.816406 L 1301.234375 1364.292969 C 1301.824219 1364.386719 1302.183594 1364.101562 1302.347656 1363.507812 C 1303.273438 1360.117188 1305.621094 1358.054688 1309.058594 1358.054688 C 1312.851562 1358.054688 1315.863281 1361.019531 1315.863281 1364.882812 C 1315.863281 1368.273438 1313.539062 1370.929688 1310.953125 1374.035156 L 1297.75 1389.828125 C 1297.226562 1390.464844 1297.488281 1391.035156 1298.292969 1391.035156 Z M 1319.464844 1391.035156 " fill-opacity="1" fill-rule="nonzero"/><path fill="rgb(96.859741%, 96.859741%, 96.859741%)" d="M 1370.785156 1391.035156 C 1371.425781 1391.035156 1371.757812 1390.703125 1371.757812 1390.0625 L 1371.757812 1355.589844 C 1371.757812 1354.949219 1371.425781 1354.617188 1370.785156 1354.617188 L 1362.226562 1354.617188 C 1361.585938 1354.617188 1361.253906 1354.949219 1361.253906 1355.589844 L 1361.253906 1357.890625 C 1361.253906 1358.507812 1361.585938 1358.863281 1362.226562 1358.863281 L 1367.277344 1358.863281 L 1367.277344 1390.0625 C 1367.277344 1390.703125 1367.609375 1391.035156 1368.246094 1391.035156 Z M 1370.785156 1391.035156 " fill-opacity="1" fill-rule="nonzero"/><path fill="rgb(79.60968%, 42.349243%, 90.19928%)" d="M 659.660156 1750.679688 L 549.105469 1722.039062 L 538.71875 1728.9375 L 647.308594 1892.628906 L 680.003906 1870.957031 L 620.328125 1780.980469 L 690.316406 1796.914062 L 702.859375 1726.234375 L 762.300781 1816.355469 L 794.996094 1794.683594 L 686.429688 1630.96875 L 676.28125 1637.703125 Z M 659.660156 1750.679688 " fill-opacity="1" fill-rule="nonzero"/><path fill="rgb(79.60968%, 42.349243%, 90.19928%)" d="M 982.316406 1719.300781 L 969.15625 1682.929688 L 911.398438 1703.816406 L 898.242188 1667.421875 L 946.085938 1650.113281 L 932.929688 1613.746094 L 885.082031 1631.027344 L 871.921875 1594.660156 L 926.644531 1574.859375 L 913.488281 1538.464844 L 822.371094 1571.421875 L 888.1875 1753.347656 Z M 982.316406 1719.300781 " fill-opacity="1" fill-rule="nonzero"/><path fill="rgb(79.60968%, 42.349243%, 90.19928%)" d="M 1100.078125 1585.714844 L 1210.683594 1682.214844 L 1220.878906 1680.957031 L 1196.742188 1485.1875 L 1158.070312 1489.953125 L 1171.445312 1598.449219 L 1060.578125 1497.636719 L 1050.382812 1498.890625 L 1074.566406 1694.921875 L 1112.976562 1690.179688 Z M 1100.078125 1585.714844 " fill-opacity="1" fill-rule="nonzero"/><path fill="rgb(79.60968%, 42.349243%, 90.19928%)" d="M 1392.933594 1686.082031 L 1409.484375 1532.183594 L 1457.351562 1537.328125 L 1461.476562 1499.132812 L 1327.210938 1484.691406 L 1323.109375 1522.914062 L 1371.003906 1528.058594 L 1354.476562 1681.933594 Z M 1392.933594 1686.082031 " fill-opacity="1" fill-rule="nonzero"/><path fill="rgb(79.60968%, 42.349243%, 90.19928%)" d="M 1612.632812 1742.847656 C 1737.460938 1789.128906 1806.789062 1602.152344 1681.980469 1555.875 C 1557.152344 1509.59375 1487.824219 1696.566406 1612.632812 1742.847656 Z M 1626.574219 1705.316406 C 1553.996094 1678.40625 1595.585938 1566.257812 1668.136719 1593.167969 C 1740.710938 1620.078125 1699.125 1732.203125 1626.574219 1705.316406 Z M 1626.574219 1705.316406 " fill-opacity="1" fill-rule="nonzero"/><path fill="rgb(79.60968%, 42.349243%, 90.19928%)" d="M 1866.601562 1878.195312 L 1902.5 1903.375 L 1911.554688 1812.210938 C 1967.535156 1831.34375 2017.773438 1747.910156 1961.296875 1708.289062 L 1898.824219 1664.476562 L 1787.71875 1822.878906 L 1819.421875 1845.09375 L 1861.835938 1784.613281 L 1877.105469 1795.351562 Z M 1883.414062 1753.835938 L 1908.285156 1718.390625 L 1936.191406 1737.953125 C 1957.695312 1753.03125 1932.824219 1788.476562 1911.34375 1773.398438 Z M 1883.414062 1753.835938 " fill-opacity="1" fill-rule="nonzero"/><path fill="rgb(74.119568%, 69.799805%, 65.489197%)" d="M 1449.976562 1128.269531 C 1442.292969 1168.457031 1473.707031 1178.4375 1473.707031 1178.4375 C 1477.621094 1155.082031 1472.855469 1141.972656 1449.976562 1128.269531 Z M 1449.976562 1128.269531 " fill-opacity="1" fill-rule="nonzero"/><path fill="rgb(74.119568%, 69.799805%, 65.489197%)" d="M 1446.300781 1171.609375 C 1438.617188 1211.796875 1470.035156 1221.800781 1470.035156 1221.800781 C 1473.945312 1198.449219 1469.179688 1185.3125 1446.300781 1171.609375 Z M 1446.300781 1171.609375 " fill-opacity="1" fill-rule="nonzero"/><path fill="rgb(74.119568%, 69.799805%, 65.489197%)" d="M 1442.910156 1215.734375 C 1435.226562 1255.921875 1466.644531 1265.925781 1466.644531 1265.925781 C 1470.554688 1242.570312 1465.789062 1229.4375 1442.910156 1215.734375 Z M 1442.910156 1215.734375 " fill-opacity="1" fill-rule="nonzero"/><path fill="rgb(74.119568%, 69.799805%, 65.489197%)" d="M 1425.222656 1129.785156 C 1400.160156 1138.820312 1392.976562 1150.792969 1392.359375 1174.453125 C 1392.359375 1174.453125 1425.105469 1170.707031 1425.222656 1129.785156 Z M 1425.222656 1129.785156 " fill-opacity="1" fill-rule="nonzero"/><path fill="rgb(74.119568%, 69.799805%, 65.489197%)" d="M 1420.789062 1175.6875 C 1395.726562 1184.742188 1388.566406 1196.71875 1387.976562 1220.402344 C 1387.976562 1220.402344 1420.71875 1216.609375 1420.789062 1175.6875 Z M 1420.789062 1175.6875 " fill-opacity="1" fill-rule="nonzero"/><path fill="rgb(74.119568%, 69.799805%, 65.489197%)" d="M 1391.863281 1263.105469 C 1391.863281 1263.105469 1424.296875 1257.152344 1421.691406 1216.324219 C 1397.269531 1227.019531 1390.890625 1239.441406 1391.863281 1263.105469 Z M 1391.863281 1263.105469 " fill-opacity="1" fill-rule="nonzero"/><path fill="rgb(74.119568%, 69.799805%, 65.489197%)" d="M 1437.695312 1295.632812 C 1449.242188 1275.007812 1449.191406 1261.019531 1432.289062 1240.296875 C 1411.519531 1275.480469 1437.695312 1295.632812 1437.695312 1295.632812 Z M 1437.695312 1295.632812 " fill-opacity="1" fill-rule="nonzero"/><g clip-path="url(#clip-0)"><path fill="rgb(74.119568%, 69.799805%, 65.489197%)" d="M 1510.292969 1111.21875 C 1506.878906 1100.882812 1501.355469 1091.800781 1493.742188 1084.050781 C 1494.882812 1083.363281 1495.757812 1082.414062 1496.375 1081.226562 C 1496.992188 1080.042969 1497.230469 1078.761719 1497.132812 1077.433594 C 1497.015625 1076.105469 1496.566406 1074.898438 1495.78125 1073.832031 C 1494.976562 1072.738281 1493.980469 1071.957031 1492.746094 1071.484375 L 1437.621094 1049.503906 C 1432.429688 1025.605469 1415.527344 1008.867188 1390.679688 1003.292969 C 1357.910156 995.96875 1310.988281 1009.199219 1276.941406 1054.292969 C 1240.097656 1012.042969 1173.78125 925.8125 1122.355469 802.617188 C 1121.859375 801.359375 1121.027344 800.363281 1119.9375 799.582031 C 1118.824219 798.800781 1117.613281 798.371094 1116.261719 798.324219 C 1114.933594 798.253906 1113.679688 798.5625 1112.492188 799.226562 C 1111.332031 799.890625 1110.429688 800.816406 1109.789062 802 C 1108.960938 803.542969 1089.566406 840.339844 1090.703125 890.601562 C 1091.128906 911.515625 1095.136719 931.714844 1102.796875 951.15625 L 1051.488281 901.960938 C 1051.0625 901.554688 1050.585938 901.199219 1050.066406 900.917969 C 1049.542969 900.609375 1049 900.394531 1048.429688 900.253906 C 1047.835938 900.085938 1047.269531 900.015625 1046.675781 900.015625 C 1046.082031 900.015625 1045.488281 900.085938 1044.921875 900.253906 C 1044.351562 900.394531 1043.804688 900.609375 1043.285156 900.917969 C 1042.761719 901.199219 1042.289062 901.554688 1041.863281 901.960938 C 1041.433594 902.363281 1041.054688 902.835938 1040.746094 903.335938 C 1040.441406 903.832031 1040.179688 904.378906 1040.011719 904.945312 C 1039.5625 906.347656 1029.628906 939.421875 1043.378906 981.101562 C 1053.335938 1011.332031 1072.28125 1035.46875 1094.972656 1054.695312 L 1032.921875 1037.222656 C 1030.339844 1036.488281 1028.0625 1037.058594 1026.144531 1038.976562 C 1024.222656 1040.875 1023.605469 1043.148438 1024.292969 1045.78125 C 1024.910156 1048.058594 1039.515625 1101.785156 1088.640625 1129.621094 C 1097.960938 1134.90625 1107.824219 1138.867188 1118.183594 1141.496094 L 1077.285156 1154.109375 C 1076.171875 1154.441406 1075.199219 1155.035156 1074.367188 1155.867188 C 1073.5625 1156.671875 1072.96875 1157.644531 1072.636719 1158.78125 C 1072.304688 1159.894531 1072.234375 1161.035156 1072.472656 1162.171875 C 1072.683594 1163.3125 1073.160156 1164.355469 1073.894531 1165.253906 C 1074.535156 1166.0625 1089.96875 1184.839844 1119.984375 1194.703125 C 1132.078125 1198.636719 1144.476562 1200.582031 1157.1875 1200.535156 C 1162.921875 1200.511719 1168.613281 1200.15625 1174.28125 1199.421875 L 1160.480469 1212.699219 C 1160.054688 1213.125 1159.675781 1213.597656 1159.367188 1214.121094 C 1159.035156 1214.640625 1158.796875 1215.1875 1158.632812 1215.757812 C 1158.441406 1216.347656 1158.347656 1216.941406 1158.324219 1217.558594 C 1158.300781 1218.152344 1158.371094 1218.765625 1158.511719 1219.359375 C 1158.632812 1219.953125 1158.84375 1220.5 1159.128906 1221.042969 C 1159.414062 1221.589844 1159.746094 1222.085938 1160.148438 1222.539062 C 1160.550781 1222.988281 1161.027344 1223.367188 1161.523438 1223.699219 C 1162.046875 1224.03125 1162.566406 1224.292969 1163.160156 1224.480469 C 1163.304688 1224.527344 1163.964844 1224.71875 1165.082031 1225.027344 C 1133.878906 1264.859375 1113.84375 1282.238281 1113.632812 1282.425781 C 1111.496094 1284.253906 1110.738281 1286.554688 1111.355469 1289.328125 C 1111.972656 1292.078125 1113.65625 1293.832031 1116.359375 1294.566406 C 1150.546875 1303.765625 1180.113281 1307.796875 1205.8125 1307.796875 C 1325.050781 1307.773438 1360.683594 1221.351562 1383.613281 1165.730469 C 1390.9375 1147.921875 1397.269531 1132.558594 1404.40625 1124.070312 C 1416.214844 1110.082031 1430.605469 1099.816406 1447.628906 1093.25 C 1441.867188 1103.5625 1438.359375 1114.5625 1435.65625 1125.589844 C 1429.871094 1150.199219 1428.472656 1175.261719 1428.636719 1200.058594 C 1428.730469 1210.066406 1429.207031 1220.070312 1429.847656 1230.03125 C 1430.558594 1235.316406 1431.835938 1236.3125 1432.167969 1228.867188 L 1432.242188 1228.890625 C 1432.144531 1219.289062 1432.21875 1209.710938 1432.621094 1200.132812 C 1433.78125 1175.570312 1436.554688 1150.957031 1443.382812 1127.699219 C 1446.847656 1116.152344 1451.375 1104.84375 1457.941406 1095.429688 C 1459.816406 1092.726562 1461.949219 1090.285156 1464.34375 1088.054688 C 1468.5625 1087.085938 1472.832031 1086.324219 1477.125 1085.78125 C 1477.953125 1086.421875 1478.734375 1087.109375 1479.566406 1087.75 C 1488.078125 1095.265625 1493.71875 1104.535156 1496.46875 1115.558594 C 1499.433594 1126.371094 1499.71875 1138.058594 1498.839844 1149.652344 L 1515.699219 1150.507812 C 1515.839844 1137.46875 1514.703125 1124.070312 1510.292969 1111.21875 Z M 1393.738281 1115.015625 C 1385.226562 1125.160156 1378.492188 1141.472656 1370.714844 1160.347656 C 1356.679688 1194.394531 1339.203125 1236.761719 1302.882812 1264.480469 C 1262.195312 1295.515625 1206.289062 1301.964844 1132.195312 1284.109375 C 1141.988281 1274.296875 1158.894531 1256.132812 1180.707031 1227.707031 C 1184.167969 1228.039062 1188.078125 1228.25 1192.347656 1228.25 C 1201.191406 1228.226562 1209.964844 1227.351562 1218.640625 1225.570312 C 1271.039062 1214.855469 1306.296875 1175.1875 1326.660156 1143.796875 L 1314.972656 1136.117188 C 1264.402344 1214.097656 1205.078125 1216.726562 1179.78125 1213.574219 L 1200.289062 1193.847656 C 1219.96875 1187.945312 1237.871094 1178.933594 1252.5 1169.996094 L 1245.265625 1157.976562 C 1161.902344 1208.855469 1111.09375 1179.621094 1092.601562 1164.09375 L 1152.539062 1145.625 C 1169.5625 1145.574219 1187.675781 1142.683594 1206.90625 1136.992188 L 1202.96875 1123.503906 C 1160.933594 1135.996094 1124.820312 1133.957031 1095.613281 1117.457031 C 1065.121094 1100.21875 1049.1875 1070.9375 1042.242188 1054.4375 L 1129.613281 1079.046875 C 1148.675781 1090.09375 1168.589844 1099.222656 1189.382812 1106.503906 L 1194.007812 1093.25 C 1121.074219 1067.335938 1073.65625 1027.289062 1056.871094 977.425781 C 1050.683594 959.050781 1048.738281 940.25 1051.085938 921 L 1125.507812 992.339844 C 1146.46875 1021.242188 1173.804688 1042.984375 1198.582031 1058.539062 L 1205.980469 1046.589844 C 1175.535156 1027.503906 1151.898438 1006.042969 1135.113281 982.191406 L 1135.136719 982.167969 L 1135.066406 982.097656 C 1115.742188 954.667969 1105.570312 924.175781 1104.691406 890.886719 C 1104.21875 867.605469 1107.988281 845.007812 1115.953125 823.148438 C 1191.566406 996.039062 1294.179688 1093.296875 1295.222656 1094.292969 L 1304.730469 1084.003906 C 1304.46875 1083.742188 1297.664062 1077.292969 1286.449219 1064.988281 C 1308.617188 1034.96875 1348.355469 1008.226562 1387.644531 1017.023438 C 1408.269531 1021.644531 1421.382812 1035.398438 1424.605469 1055.714844 C 1425.007812 1058.347656 1426.457031 1060.175781 1428.921875 1061.144531 L 1461.546875 1074.164062 C 1441.675781 1078.667969 1415.171875 1089.457031 1393.738281 1114.992188 Z M 1393.738281 1115.015625 " fill-opacity="1" fill-rule="nonzero"/></g><path fill="rgb(74.119568%, 69.799805%, 65.489197%)" d="M 1394.851562 1053.558594 C 1395.253906 1055.078125 1395.371094 1056.617188 1395.160156 1058.183594 C 1394.945312 1059.746094 1394.472656 1061.191406 1393.6875 1062.570312 C 1392.90625 1063.945312 1391.886719 1065.105469 1390.628906 1066.054688 C 1389.398438 1067.003906 1388.023438 1067.691406 1386.503906 1068.09375 C 1384.988281 1068.519531 1383.46875 1068.613281 1381.90625 1068.402344 C 1380.363281 1068.1875 1378.917969 1067.691406 1377.542969 1066.90625 C 1376.191406 1066.125 1375.054688 1065.105469 1374.105469 1063.847656 C 1373.132812 1062.59375 1372.46875 1061.21875 1372.066406 1059.699219 C 1371.664062 1058.183594 1371.542969 1056.640625 1371.757812 1055.078125 C 1371.972656 1053.511719 1372.46875 1052.042969 1373.25 1050.667969 C 1374.035156 1049.316406 1375.03125 1048.152344 1376.285156 1047.203125 C 1377.519531 1046.234375 1378.894531 1045.546875 1380.410156 1045.140625 C 1381.929688 1044.738281 1383.445312 1044.644531 1385.011719 1044.832031 C 1386.550781 1045.046875 1388 1045.546875 1389.375 1046.328125 C 1390.726562 1047.132812 1391.863281 1048.152344 1392.835938 1049.386719 C 1393.785156 1050.644531 1394.449219 1052.019531 1394.851562 1053.558594 Z M 1394.851562 1053.558594 " fill-opacity="1" fill-rule="nonzero"/><path fill="rgb(79.60968%, 42.349243%, 90.19928%)" d="M 3559.179688 807.613281 L 3479.777344 631.191406 L 3444.472656 647.078125 L 3523.898438 823.5 Z M 3559.179688 807.613281 " fill-opacity="1" fill-rule="nonzero"/><path fill="rgb(79.60968%, 42.349243%, 90.19928%)" d="M 3670.550781 658.160156 L 3790.355469 742.945312 L 3800.382812 740.667969 L 3756.519531 548.335938 L 3718.539062 557.015625 L 3742.839844 663.589844 L 3622.324219 574.511719 L 3612.292969 576.789062 L 3656.230469 769.382812 L 3693.949219 760.773438 Z M 3670.550781 658.160156 " fill-opacity="1" fill-rule="nonzero"/><path fill="rgb(79.60968%, 42.349243%, 90.19928%)" d="M 3962.71875 534.695312 L 3905.105469 533.226562 L 3900.148438 726.625 L 3957.761719 728.121094 C 4086.507812 731.414062 4091.460938 537.992188 3962.71875 534.695312 Z M 3961.722656 573.390625 C 4036.90625 575.3125 4033.941406 691.347656 3958.757812 689.425781 L 3939.816406 688.953125 L 3942.777344 572.894531 Z M 3961.722656 573.390625 " fill-opacity="1" fill-rule="nonzero"/><path fill="rgb(79.60968%, 42.349243%, 90.19928%)" d="M 4187.4375 757.277344 L 4230.472656 568.644531 L 4192.75 560.039062 L 4149.714844 748.671875 Z M 4187.4375 757.277344 " fill-opacity="1" fill-rule="nonzero"/><path fill="rgb(79.60968%, 42.349243%, 90.19928%)" d="M 4381.203125 826.101562 L 4396.164062 790.417969 L 4339.523438 766.660156 L 4354.507812 730.976562 L 4401.402344 750.65625 L 4416.386719 714.972656 L 4369.46875 695.292969 L 4384.453125 659.613281 L 4438.082031 682.136719 L 4453.066406 646.453125 L 4363.730469 608.96875 L 4288.878906 787.359375 Z M 4381.203125 826.101562 " fill-opacity="1" fill-rule="nonzero"/><path fill="rgb(96.859741%, 96.859741%, 96.859741%)" d="M 3866.671875 1391.035156 C 3867.3125 1391.035156 3867.644531 1390.703125 3867.644531 1390.0625 L 3867.644531 1387.789062 C 3867.644531 1387.171875 3867.3125 1386.839844 3866.671875 1386.839844 L 3853.230469 1386.839844 L 3860.507812 1378.113281 C 3864.5625 1373.277344 3867.574219 1370.003906 3867.574219 1364.882812 C 3867.574219 1358.484375 3862.546875 1353.859375 3856.171875 1353.859375 C 3850.480469 1353.859375 3846.542969 1357.34375 3845.214844 1362.703125 C 3845.074219 1363.320312 3845.335938 1363.699219 3845.953125 1363.816406 L 3848.441406 1364.292969 C 3849.035156 1364.386719 3849.390625 1364.101562 3849.554688 1363.507812 C 3850.480469 1360.117188 3852.828125 1358.054688 3856.265625 1358.054688 C 3860.058594 1358.054688 3863.070312 1361.019531 3863.070312 1364.882812 C 3863.070312 1368.273438 3860.746094 1370.929688 3858.160156 1374.035156 L 3844.957031 1389.828125 C 3844.433594 1390.464844 3844.695312 1391.035156 3845.5 1391.035156 Z M 3866.671875 1391.035156 " fill-opacity="1" fill-rule="nonzero"/><path fill="rgb(96.859741%, 96.859741%, 96.859741%)" d="M 3921.144531 1391.792969 C 3928.875 1391.792969 3932.835938 1383.660156 3932.835938 1372.828125 C 3932.835938 1362.15625 3929.066406 1353.859375 3921.144531 1353.859375 C 3913.203125 1353.859375 3909.433594 1362.15625 3909.433594 1372.828125 C 3909.433594 1383.660156 3913.417969 1391.792969 3921.144531 1391.792969 Z M 3921.144531 1387.597656 C 3916.425781 1387.597656 3913.960938 1381.574219 3913.960938 1372.828125 C 3913.960938 1364.078125 3916.355469 1358.007812 3921.144531 1358.007812 C 3925.933594 1358.007812 3928.304688 1364.078125 3928.304688 1372.851562 C 3928.304688 1381.550781 3925.816406 1387.597656 3921.144531 1387.597656 Z M 3921.144531 1387.597656 " fill-opacity="1" fill-rule="nonzero"/><path fill="rgb(96.859741%, 96.859741%, 96.859741%)" d="M 3995.980469 1391.035156 C 3996.621094 1391.035156 3996.953125 1390.703125 3996.953125 1390.0625 L 3996.953125 1387.789062 C 3996.953125 1387.171875 3996.621094 1386.839844 3995.980469 1386.839844 L 3982.539062 1386.839844 L 3989.816406 1378.113281 C 3993.871094 1373.277344 3996.882812 1370.003906 3996.882812 1364.882812 C 3996.882812 1358.484375 3991.855469 1353.859375 3985.476562 1353.859375 C 3979.789062 1353.859375 3975.851562 1357.34375 3974.523438 1362.703125 C 3974.382812 1363.320312 3974.644531 1363.699219 3975.257812 1363.816406 L 3977.75 1364.292969 C 3978.34375 1364.386719 3978.699219 1364.101562 3978.863281 1363.507812 C 3979.789062 1360.117188 3982.136719 1358.054688 3985.574219 1358.054688 C 3989.367188 1358.054688 3992.378906 1361.019531 3992.378906 1364.882812 C 3992.378906 1368.273438 3990.054688 1370.929688 3987.46875 1374.035156 L 3974.265625 1389.828125 C 3973.742188 1390.464844 3974.003906 1391.035156 3974.808594 1391.035156 Z M 3995.980469 1391.035156 " fill-opacity="1" fill-rule="nonzero"/><path fill="rgb(96.859741%, 96.859741%, 96.859741%)" d="M 4047.300781 1391.035156 C 4047.941406 1391.035156 4048.273438 1390.703125 4048.273438 1390.0625 L 4048.273438 1355.589844 C 4048.273438 1354.949219 4047.941406 1354.617188 4047.300781 1354.617188 L 4038.742188 1354.617188 C 4038.101562 1354.617188 4037.769531 1354.949219 4037.769531 1355.589844 L 4037.769531 1357.890625 C 4037.769531 1358.507812 4038.101562 1358.863281 4038.742188 1358.863281 L 4043.792969 1358.863281 L 4043.792969 1390.0625 C 4043.792969 1390.703125 4044.125 1391.035156 4044.765625 1391.035156 Z M 4047.300781 1391.035156 " fill-opacity="1" fill-rule="nonzero"/><path fill="rgb(79.60968%, 42.349243%, 90.19928%)" d="M 3336.175781 1750.679688 L 3225.621094 1722.039062 L 3215.234375 1728.9375 L 3323.824219 1892.628906 L 3356.519531 1870.957031 L 3296.84375 1780.980469 L 3366.832031 1796.914062 L 3379.375 1726.234375 L 3438.816406 1816.355469 L 3471.511719 1794.683594 L 3362.945312 1630.96875 L 3352.796875 1637.703125 Z M 3336.175781 1750.679688 " fill-opacity="1" fill-rule="nonzero"/><path fill="rgb(79.60968%, 42.349243%, 90.19928%)" d="M 3658.832031 1719.300781 L 3645.671875 1682.929688 L 3587.914062 1703.816406 L 3574.757812 1667.421875 L 3622.601562 1650.113281 L 3609.445312 1613.746094 L 3561.597656 1631.027344 L 3548.4375 1594.660156 L 3603.160156 1574.859375 L 3590.003906 1538.464844 L 3498.886719 1571.421875 L 3564.703125 1753.347656 Z M 3658.832031 1719.300781 " fill-opacity="1" fill-rule="nonzero"/><path fill="rgb(79.60968%, 42.349243%, 90.19928%)" d="M 3776.59375 1585.714844 L 3887.199219 1682.214844 L 3897.394531 1680.957031 L 3873.257812 1485.1875 L 3834.585938 1489.953125 L 3847.960938 1598.449219 L 3737.09375 1497.636719 L 3726.898438 1498.890625 L 3751.082031 1694.921875 L 3789.492188 1690.179688 Z M 3776.59375 1585.714844 " fill-opacity="1" fill-rule="nonzero"/><path fill="rgb(79.60968%, 42.349243%, 90.19928%)" d="M 4069.449219 1686.082031 L 4086 1532.183594 L 4133.867188 1537.328125 L 4137.992188 1499.132812 L 4003.726562 1484.691406 L 3999.625 1522.914062 L 4047.519531 1528.058594 L 4030.992188 1681.933594 Z M 4069.449219 1686.082031 " fill-opacity="1" fill-rule="nonzero"/><path fill="rgb(79.60968%, 42.349243%, 90.19928%)" d="M 4289.148438 1742.847656 C 4413.976562 1789.128906 4483.304688 1602.152344 4358.496094 1555.875 C 4233.667969 1509.59375 4164.339844 1696.566406 4289.148438 1742.847656 Z M 4303.089844 1705.316406 C 4230.511719 1678.40625 4272.101562 1566.257812 4344.652344 1593.167969 C 4417.226562 1620.078125 4375.640625 1732.203125 4303.089844 1705.316406 Z M 4303.089844 1705.316406 " fill-opacity="1" fill-rule="nonzero"/><path fill="rgb(79.60968%, 42.349243%, 90.19928%)" d="M 4543.117188 1878.195312 L 4579.015625 1903.375 L 4588.070312 1812.210938 C 4644.050781 1831.34375 4694.289062 1747.910156 4637.8125 1708.289062 L 4575.339844 1664.476562 L 4464.234375 1822.878906 L 4495.9375 1845.09375 L 4538.351562 1784.613281 L 4553.621094 1795.351562 Z M 4559.929688 1753.835938 L 4584.800781 1718.390625 L 4612.707031 1737.953125 C 4634.210938 1753.03125 4609.339844 1788.476562 4587.859375 1773.398438 Z M 4559.929688 1753.835938 " fill-opacity="1" fill-rule="nonzero"/><path fill="rgb(74.119568%, 69.799805%, 65.489197%)" d="M 4126.492188 1128.269531 C 4118.808594 1168.457031 4150.222656 1178.4375 4150.222656 1178.4375 C 4154.136719 1155.082031 4149.371094 1141.972656 4126.492188 1128.269531 Z M 4126.492188 1128.269531 " fill-opacity="1" fill-rule="nonzero"/><path fill="rgb(74.119568%, 69.799805%, 65.489197%)" d="M 4122.816406 1171.609375 C 4115.132812 1211.796875 4146.550781 1221.800781 4146.550781 1221.800781 C 4150.460938 1198.449219 4145.695312 1185.3125 4122.816406 1171.609375 Z M 4122.816406 1171.609375 " fill-opacity="1" fill-rule="nonzero"/><path fill="rgb(74.119568%, 69.799805%, 65.489197%)" d="M 4119.425781 1215.734375 C 4111.742188 1255.921875 4143.160156 1265.925781 4143.160156 1265.925781 C 4147.070312 1242.570312 4142.304688 1229.4375 4119.425781 1215.734375 Z M 4119.425781 1215.734375 " fill-opacity="1" fill-rule="nonzero"/><path fill="rgb(74.119568%, 69.799805%, 65.489197%)" d="M 4101.738281 1129.785156 C 4076.675781 1138.820312 4069.492188 1150.792969 4068.875 1174.453125 C 4068.875 1174.453125 4101.621094 1170.707031 4101.738281 1129.785156 Z M 4101.738281 1129.785156 " fill-opacity="1" fill-rule="nonzero"/><path fill="rgb(74.119568%, 69.799805%, 65.489197%)" d="M 4097.304688 1175.6875 C 4072.242188 1184.742188 4065.082031 1196.71875 4064.492188 1220.402344 C 4064.492188 1220.402344 4097.234375 1216.609375 4097.304688 1175.6875 Z M 4097.304688 1175.6875 " fill-opacity="1" fill-rule="nonzero"/><path fill="rgb(74.119568%, 69.799805%, 65.489197%)" d="M 4068.378906 1263.105469 C 4068.378906 1263.105469 4100.8125 1257.152344 4098.207031 1216.324219 C 4073.785156 1227.019531 4067.40625 1239.441406 4068.378906 1263.105469 Z M 4068.378906 1263.105469 " fill-opacity="1" fill-rule="nonzero"/><path fill="rgb(74.119568%, 69.799805%, 65.489197%)" d="M 4114.210938 1295.632812 C 4125.757812 1275.007812 4125.707031 1261.019531 4108.804688 1240.296875 C 4088.035156 1275.480469 4114.210938 1295.632812 4114.210938 1295.632812 Z M 4114.210938 1295.632812 " fill-opacity="1" fill-rule="nonzero"/><g clip-path="url(#clip-1)"><path fill="rgb(74.119568%, 69.799805%, 65.489197%)" d="M 4186.808594 1111.21875 C 4183.394531 1100.882812 4177.871094 1091.800781 4170.257812 1084.050781 C 4171.398438 1083.363281 4172.273438 1082.414062 4172.890625 1081.226562 C 4173.507812 1080.042969 4173.746094 1078.761719 4173.648438 1077.433594 C 4173.53125 1076.105469 4173.082031 1074.898438 4172.296875 1073.832031 C 4171.492188 1072.738281 4170.496094 1071.957031 4169.261719 1071.484375 L 4114.136719 1049.503906 C 4108.945312 1025.605469 4092.042969 1008.867188 4067.195312 1003.292969 C 4034.425781 995.96875 3987.503906 1009.199219 3953.457031 1054.292969 C 3916.613281 1012.042969 3850.296875 925.8125 3798.871094 802.617188 C 3798.375 801.359375 3797.542969 800.363281 3796.453125 799.582031 C 3795.339844 798.800781 3794.128906 798.371094 3792.777344 798.324219 C 3791.449219 798.253906 3790.195312 798.5625 3789.007812 799.226562 C 3787.847656 799.890625 3786.945312 800.816406 3786.304688 802 C 3785.476562 803.542969 3766.082031 840.339844 3767.21875 890.601562 C 3767.644531 911.515625 3771.652344 931.714844 3779.3125 951.15625 L 3728.003906 901.960938 C 3727.578125 901.554688 3727.101562 901.199219 3726.582031 900.917969 C 3726.058594 900.609375 3725.515625 900.394531 3724.945312 900.253906 C 3724.351562 900.085938 3723.785156 900.015625 3723.191406 900.015625 C 3722.597656 900.015625 3722.003906 900.085938 3721.4375 900.253906 C 3720.867188 900.394531 3720.320312 900.609375 3719.800781 900.917969 C 3719.277344 901.199219 3718.804688 901.554688 3718.378906 901.960938 C 3717.949219 902.363281 3717.570312 902.835938 3717.261719 903.335938 C 3716.957031 903.832031 3716.695312 904.378906 3716.527344 904.945312 C 3716.078125 906.347656 3706.144531 939.421875 3719.894531 981.101562 C 3729.851562 1011.332031 3748.796875 1035.46875 3771.488281 1054.695312 L 3709.4375 1037.222656 C 3706.855469 1036.488281 3704.578125 1037.058594 3702.660156 1038.976562 C 3700.738281 1040.875 3700.121094 1043.148438 3700.808594 1045.78125 C 3701.425781 1048.058594 3716.03125 1101.785156 3765.15625 1129.621094 C 3774.476562 1134.90625 3784.339844 1138.867188 3794.699219 1141.496094 L 3753.800781 1154.109375 C 3752.6875 1154.441406 3751.714844 1155.035156 3750.882812 1155.867188 C 3750.078125 1156.671875 3749.484375 1157.644531 3749.152344 1158.78125 C 3748.820312 1159.894531 3748.75 1161.035156 3748.988281 1162.171875 C 3749.199219 1163.3125 3749.675781 1164.355469 3750.410156 1165.253906 C 3751.050781 1166.0625 3766.484375 1184.839844 3796.5 1194.703125 C 3808.59375 1198.636719 3820.992188 1200.582031 3833.703125 1200.535156 C 3839.4375 1200.511719 3845.128906 1200.15625 3850.796875 1199.421875 L 3836.996094 1212.699219 C 3836.570312 1213.125 3836.191406 1213.597656 3835.882812 1214.121094 C 3835.550781 1214.640625 3835.3125 1215.1875 3835.148438 1215.757812 C 3834.957031 1216.347656 3834.863281 1216.941406 3834.839844 1217.558594 C 3834.816406 1218.152344 3834.886719 1218.765625 3835.027344 1219.359375 C 3835.148438 1219.953125 3835.359375 1220.5 3835.644531 1221.042969 C 3835.929688 1221.589844 3836.261719 1222.085938 3836.664062 1222.539062 C 3837.066406 1222.988281 3837.542969 1223.367188 3838.039062 1223.699219 C 3838.5625 1224.03125 3839.082031 1224.292969 3839.675781 1224.480469 C 3839.820312 1224.527344 3840.480469 1224.71875 3841.597656 1225.027344 C 3810.394531 1264.859375 3790.359375 1282.238281 3790.148438 1282.425781 C 3788.011719 1284.253906 3787.253906 1286.554688 3787.871094 1289.328125 C 3788.488281 1292.078125 3790.171875 1293.832031 3792.875 1294.566406 C 3827.0625 1303.765625 3856.628906 1307.796875 3882.328125 1307.796875 C 4001.566406 1307.773438 4037.199219 1221.351562 4060.128906 1165.730469 C 4067.453125 1147.921875 4073.785156 1132.558594 4080.921875 1124.070312 C 4092.730469 1110.082031 4107.121094 1099.816406 4124.144531 1093.25 C 4118.382812 1103.5625 4114.875 1114.5625 4112.171875 1125.589844 C 4106.386719 1150.199219 4104.988281 1175.261719 4105.152344 1200.058594 C 4105.246094 1210.066406 4105.722656 1220.070312 4106.363281 1230.03125 C 4107.074219 1235.316406 4108.351562 1236.3125 4108.683594 1228.867188 L 4108.757812 1228.890625 C 4108.660156 1219.289062 4108.734375 1209.710938 4109.136719 1200.132812 C 4110.296875 1175.570312 4113.070312 1150.957031 4119.898438 1127.699219 C 4123.363281 1116.152344 4127.890625 1104.84375 4134.457031 1095.429688 C 4136.332031 1092.726562 4138.464844 1090.285156 4140.859375 1088.054688 C 4145.078125 1087.085938 4149.347656 1086.324219 4153.636719 1085.78125 C 4154.46875 1086.421875 4155.25 1087.109375 4156.082031 1087.75 C 4164.59375 1095.265625 4170.234375 1104.535156 4172.984375 1115.558594 C 4175.949219 1126.371094 4176.234375 1138.058594 4175.355469 1149.652344 L 4192.214844 1150.507812 C 4192.355469 1137.46875 4191.21875 1124.070312 4186.808594 1111.21875 Z M 4070.253906 1115.015625 C 4061.742188 1125.160156 4055.007812 1141.472656 4047.230469 1160.347656 C 4033.195312 1194.394531 4015.71875 1236.761719 3979.398438 1264.480469 C 3938.710938 1295.515625 3882.804688 1301.964844 3808.710938 1284.109375 C 3818.503906 1274.296875 3835.410156 1256.132812 3857.222656 1227.707031 C 3860.683594 1228.039062 3864.59375 1228.25 3868.863281 1228.25 C 3877.707031 1228.226562 3886.480469 1227.351562 3895.15625 1225.570312 C 3947.554688 1214.855469 3982.8125 1175.1875 4003.175781 1143.796875 L 3991.488281 1136.117188 C 3940.917969 1214.097656 3881.59375 1216.726562 3856.296875 1213.574219 L 3876.804688 1193.847656 C 3896.484375 1187.945312 3914.386719 1178.933594 3929.015625 1169.996094 L 3921.78125 1157.976562 C 3838.417969 1208.855469 3787.609375 1179.621094 3769.117188 1164.09375 L 3829.054688 1145.625 C 3846.078125 1145.574219 3864.191406 1142.683594 3883.421875 1136.992188 L 3879.484375 1123.503906 C 3837.449219 1135.996094 3801.335938 1133.957031 3772.128906 1117.457031 C 3741.636719 1100.21875 3725.703125 1070.9375 3718.757812 1054.4375 L 3806.128906 1079.046875 C 3825.191406 1090.09375 3845.105469 1099.222656 3865.898438 1106.503906 L 3870.523438 1093.25 C 3797.589844 1067.335938 3750.171875 1027.289062 3733.386719 977.425781 C 3727.199219 959.050781 3725.253906 940.25 3727.601562 921 L 3802.023438 992.339844 C 3822.984375 1021.242188 3850.320312 1042.984375 3875.097656 1058.539062 L 3882.496094 1046.589844 C 3852.050781 1027.503906 3828.414062 1006.042969 3811.628906 982.191406 L 3811.652344 982.167969 L 3811.582031 982.097656 C 3792.257812 954.667969 3782.085938 924.175781 3781.207031 890.886719 C 3780.734375 867.605469 3784.503906 845.007812 3792.46875 823.148438 C 3868.082031 996.039062 3970.695312 1093.296875 3971.738281 1094.292969 L 3981.246094 1084.003906 C 3980.984375 1083.742188 3974.179688 1077.292969 3962.964844 1064.988281 C 3985.132812 1034.96875 4024.871094 1008.226562 4064.160156 1017.023438 C 4084.785156 1021.644531 4097.898438 1035.398438 4101.121094 1055.714844 C 4101.523438 1058.347656 4102.972656 1060.175781 4105.4375 1061.144531 L 4138.0625 1074.164062 C 4118.191406 1078.667969 4091.683594 1089.457031 4070.253906 1114.992188 Z M 4070.253906 1115.015625 " fill-opacity="1" fill-rule="nonzero"/></g><path fill="rgb(74.119568%, 69.799805%, 65.489197%)" d="M 4071.367188 1053.558594 C 4071.769531 1055.078125 4071.886719 1056.617188 4071.675781 1058.183594 C 4071.460938 1059.746094 4070.988281 1061.191406 4070.203125 1062.570312 C 4069.421875 1063.945312 4068.402344 1065.105469 4067.144531 1066.054688 C 4065.914062 1067.003906 4064.539062 1067.691406 4063.019531 1068.09375 C 4061.503906 1068.519531 4059.984375 1068.613281 4058.421875 1068.402344 C 4056.878906 1068.1875 4055.433594 1067.691406 4054.058594 1066.90625 C 4052.707031 1066.125 4051.570312 1065.105469 4050.621094 1063.847656 C 4049.648438 1062.59375 4048.984375 1061.21875 4048.582031 1059.699219 C 4048.179688 1058.183594 4048.058594 1056.640625 4048.273438 1055.078125 C 4048.488281 1053.511719 4048.984375 1052.042969 4049.765625 1050.667969 C 4050.550781 1049.316406 4051.546875 1048.152344 4052.800781 1047.203125 C 4054.035156 1046.234375 4055.410156 1045.546875 4056.925781 1045.140625 C 4058.445312 1044.738281 4059.960938 1044.644531 4061.527344 1044.832031 C 4063.066406 1045.046875 4064.515625 1045.546875 4065.890625 1046.328125 C 4067.242188 1047.132812 4068.378906 1048.152344 4069.351562 1049.386719 C 4070.300781 1050.644531 4070.964844 1052.019531 4071.367188 1053.558594 Z M 4071.367188 1053.558594 " fill-opacity="1" fill-rule="nonzero"/></svg>